<svg width="220.46" height="50.109" viewBox="0 0 220.46 50.109" id="logo_white_border" x="1586.4" y="137.46" xmlns="http://www.w3.org/2000/svg"><g stroke-linejoin="round"><path d="M110.23 49.309c-14.69 0-28.94-.621-42.356-1.847-12.968-1.184-24.618-2.88-34.626-5.041-10.044-2.169-17.942-4.7-23.475-7.525C3.819 31.856.8 28.546.8 25.054c0-3.492 3.019-6.803 8.973-9.842 5.533-2.825 13.431-5.356 23.475-7.525 10.008-2.16 21.658-3.856 34.626-5.04C81.29 1.42 95.54.8 110.23.8s28.94.621 42.356 1.846c12.968 1.185 24.618 2.88 34.626 5.041 10.044 2.169 17.942 4.7 23.475 7.525 5.954 3.04 8.973 6.35 8.973 9.842 0 3.491-3.019 6.803-8.973 9.842-5.533 2.825-13.431 5.356-23.475 7.525-10.008 2.16-21.658 3.857-34.626 5.041-13.417 1.226-27.667 1.847-42.356 1.847Z"></path><path d="M110.23 48.509c59.994 0 108.63-10.501 108.63-23.455C218.86 12.1 170.224 1.6 110.23 1.6 50.236 1.6 1.6 12.1 1.6 25.054s48.636 23.455 108.63 23.455m0 1.6c-14.714 0-28.989-.623-42.43-1.85-13-1.187-24.681-2.888-34.72-5.056-10.112-2.183-18.076-4.738-23.67-7.594-2.936-1.499-5.212-3.09-6.764-4.728C.89 29.03 0 27.068 0 25.054c0-2.015.89-3.975 2.646-5.828 1.552-1.638 3.828-3.228 6.763-4.727 5.595-2.856 13.559-5.41 23.67-7.594C43.12 4.738 54.801 3.037 67.801 1.85 81.24.622 95.516 0 110.23 0c14.713 0 28.988.622 42.429 1.85 13 1.187 24.682 2.888 34.721 5.055 10.112 2.183 18.076 4.738 23.67 7.594 2.936 1.499 5.212 3.089 6.764 4.727 1.756 1.853 2.646 3.813 2.646 5.828 0 2.014-.89 3.975-2.646 5.827-1.552 1.639-3.828 3.23-6.763 4.728-5.595 2.856-13.559 5.41-23.67 7.594-10.04 2.168-21.722 3.869-34.722 5.056-13.44 1.227-27.716 1.85-42.43 1.85Z" fill="#fff"></path></g><path d="M18.09 31.163c-.141 0-.252-.07-.252-.193v-2.692c0-.354.094-.494.284-.494h3.521v-6.691h-3.38c-.314 0-.393-.088-.393-.265v-2.46c0-.354.126-.478.284-.478h21.877c2.609 0 5.642 1.381 5.642 3.327 0 1.735-2.121 2.833-3.112 3.38.629.265 3.238.656 3.238 3.187 0 2.9-3.9 3.379-4.4 3.379Zm11.521-3.273h5.3c.959 0 1.73-.676 1.73-1.224 0-.619-.927-1.044-1.6-1.044h-5.43Zm0-6.744v2.232h5.419c.456 0 1.565-.471 1.606-1.277.026-.513-.944-.956-1.589-.956ZM61.869 31.163a.333.333 0 0 1-.361-.336v-2.583a.241.241 0 0 1 .253-.266h2.657l-1.276-1.87h-4.874l-1.275 1.87h2.243c.173 0 .252.105.252.212v2.637c0 .213-.063.336-.22.336h-9.992c-.36 0-.628-.035-.628-.283v-2.702c0-.195.078-.3.313-.3h3.223l6.1-9.61a.651.651 0 0 1 .55-.372h7.227a.621.621 0 0 1 .581.372l6.334 9.788h2.778c.267 0 .267.319.267.584v2.238c0 .213-.157.283-.44.283Zm-2.943-7.814h3.841l-1.226-2.089a5.238 5.238 0 0 0-1.279 0ZM125.665 17.89a.843.843 0 0 1 .486.213l8.08 7.7v-4.568h-2.762c-.236 0-.362-.089-.362-.23v-2.727c0-.211.111-.389.22-.389h9.831c.283 0 .345.265.345.443v2.584c0 .229-.156.318-.359.318h-2.653v9.451c0 .3-.078.477-.285.477h-9.679a.575.575 0 0 1-.392-.123l-8.849-8.442v5.221h2.934c.189 0 .393.089.393.265v2.695c0 .265-.126.388-.314.388h-10.072c-.157 0-.234-.123-.234-.354v-2.675c0-.142.078-.318.393-.318h2.714v-6.584h-2.825c-.11 0-.266-.053-.266-.318v-2.762c0-.176.157-.265.392-.265ZM92.977 17.89a.845.845 0 0 1 .486.213l8.079 7.7v-4.568h-2.761c-.236 0-.362-.089-.362-.23v-2.727c0-.211.111-.389.22-.389h9.832c.283 0 .346.265.346.443v2.584c0 .229-.158.318-.361.318h-2.655v9.451c0 .3-.078.477-.282.477h-9.682a.575.575 0 0 1-.392-.123l-8.849-8.442v5.221h2.935c.188 0 .392.089.392.265v2.695c0 .265-.125.388-.313.388H79.544c-.158 0-.236-.123-.236-.354v-2.675c0-.142.079-.318.393-.318h2.715v-6.584h-2.825c-.11 0-.267-.053-.267-.318v-2.762c0-.176.158-.265.393-.265ZM171.346 17.89c.282 0 .361.124.361.389v4.652c0 .178-.048.3-.2.3h-5.758c-.112 0-.206 0-.206-.124V21.27h-9.084v2.073h5.061c.156 0 .221.036.221.177v2.343c0 .142-.19.177-.377.177h-4.905v1.831h9.211v-1.42c0-.158.046-.353.3-.353h5.752c.109 0 .174.089.174.337v4.481c0 .125-.066.248-.362.248h-26.655c-.2 0-.393.018-.393-.193v-2.793a.27.27 0 0 1 .236-.3h3.566v-6.625h-3.583c-.125 0-.219.036-.219-.177V18.05c0-.088.158-.16.393-.16ZM195.07 17.89a18.753 18.753 0 0 1 5.172.743c.976.442 2.4 1.345 2.4 2.779 0 1.327-1.6 2.318-3.145 2.99a3.874 3.874 0 0 1 2.5 2.885c.109.337.252.567.5.567a1.025 1.025 0 0 0 1.211-1.139v-.5c0-.106.061-.176.22-.176h1.854c.109 0 .172.07.172.283v1.564c0 1.893-2.467 3.273-3.615 3.273H196.1a2.926 2.926 0 0 1-2.207-1.481c-.236-.441-.581-1.822-.74-2.248a2.515 2.515 0 0 0-2.435-1.45h-3.962v1.928h3.663c.143 0 .236.016.236.1v3.05c0 .088-.093.105-.236.105h-15.2c-.08 0-.173-.07-.173-.248v-2.9c0-.088.08-.212.173-.212h3.473v-6.725h-3.489c-.143 0-.235-.036-.235-.265v-2.675c0-.124.062-.248.171-.248Zm-8.314 3.256v2.332h4.795c1.022 0 2.263-.6 2.263-1.286 0-.832-1.62-1.044-1.887-1.044Z" fill="#fff"></path></svg>