<svg viewBox="0 0 1434 413" xmlns="http://www.w3.org/2000/svg"><path d="m503.29 311.22h-22.64v35.33h22.64c11.12 0 18.78-5.63 18.78-17.67s-7.66-17.66-18.78-17.66m.66 40.73h-23.31v33.99h-6.08v-80.13h29.38c13.84 0 24.2 8.34 24.2 23.07s-10.35 23.07-24.2 23.07m60.75-15.86c-9.34 0-14.52 7.75-14.52 16.41v33.43h-5.73v-54.25h5.73v7.2c3.15-5.05 9.44-7.88 15.87-7.88 5.28 0 9.1 1.24 13.04 5.19l-4.15 4.16c-3.27-3.26-5.74-4.26-10.24-4.26m56.36 4.6c-3.06-3.02-6.88-4.61-11.26-4.61s-8.22 1.59-11.26 4.61c-4.49 4.5-4.84 11.82-4.84 18.13s.36 13.62 4.84 18.12c3.04 3.03 6.87 4.61 11.26 4.61s8.21-1.58 11.26-4.61c4.49-4.5 4.82-11.83 4.82-18.12s-.33-13.63-4.82-18.13m3.81 39.96c-3.94 3.94-8.89 5.97-15.08 5.97s-11.14-2.03-15.08-5.97c-5.74-5.73-6.77-14.06-6.77-21.83s1.03-16.08 6.77-21.84c3.93-3.94 8.99-5.97 15.08-5.97s11.13 2.02 15.08 5.97c5.74 5.76 6.75 14.06 6.75 21.84s-1.01 16.09-6.75 21.83m35.87 5.29-19.8-54.24h6.29l16.32 47.49 16.33-47.49h6.3l-19.83 54.24zm70.41-40.74c-2.36-5.74-7.77-9.11-14.06-9.11s-11.71 3.36-14.07 9.11c-1.24 3.48-1.58 4.95-1.92 10.23h31.96c-.34-5.18-.44-6.96-1.92-10.23m-12.37 36.23c6.41 0 10.35-1.91 14.96-6.53l4.28 3.39c-5.51 5.51-10.56 8.33-19.58 8.33-14.96 0-23.06-9.68-23.06-27.8s8.1-27.81 21.72-27.81 21.71 9.79 21.71 26.45v2.59h-37.7c0 13.83 6.08 21.38 17.67 21.38m73.69-29.14c0-10.46-5.18-16.19-14.97-16.19s-15.3 5.83-15.3 16.19v33.65h-5.74v-54.24h5.74v6.43c4.05-4.75 9.33-7.11 15.98-7.11 5.97 0 10.79 1.68 14.39 5.18 3.72 3.6 5.64 8.67 5.64 15.09v34.65h-5.73v-33.65zm85.69-41.07h-22.62v35.33h22.62c11.14 0 18.79-5.63 18.79-17.67s-7.65-17.66-18.79-17.66m.68 40.73h-23.31v33.99h-6.09v-80.13h29.39c13.82 0 24.18 8.34 24.18 23.07s-10.36 23.07-24.18 23.07m60.72-15.86c-9.32 0-14.52 7.75-14.52 16.41v33.43h-5.73v-54.25h5.73v7.2c3.16-5.05 9.46-7.88 15.88-7.88 5.28 0 9.11 1.24 13.04 5.19l-4.16 4.16c-3.27-3.26-5.74-4.26-10.24-4.26m56.35 4.6c-3.02-3.02-6.85-4.61-11.25-4.61s-8.21 1.59-11.24 4.61c-4.5 4.5-4.84 11.82-4.84 18.13s.34 13.62 4.84 18.12c3.03 3.03 6.87 4.61 11.24 4.61s8.23-1.58 11.25-4.61c4.5-4.5 4.86-11.83 4.86-18.12s-.36-13.63-4.86-18.13m3.85 39.96c-3.94 3.94-8.92 5.97-15.1 5.97s-11.12-2.03-15.06-5.97c-5.74-5.73-6.76-14.06-6.76-21.83s1.02-16.08 6.76-21.84c3.94-3.94 8.99-5.97 15.06-5.97s11.16 2.02 15.1 5.97c5.73 5.76 6.74 14.06 6.74 21.84s-1.01 16.09-6.74 21.83m43.28-44.55c-13.28 0-15.3 11.48-15.3 22.7s2.03 22.76 15.3 22.76 15.3-11.49 15.3-22.76-2.03-22.7-15.3-22.7m15.3 42.86c-4.82 6.31-9.89 7.65-16.09 7.65-5.73 0-10.46-1.91-13.29-4.73-5.48-5.52-6.96-14.52-6.96-23.08s1.48-17.54 6.96-23.05c2.83-2.83 7.56-4.74 13.29-4.74 6.21 0 11.27 1.34 16.09 7.65v-32.85h5.73v80.12h-5.73v-6.98zm61.98.56c-4.05 4.73-9.34 7.09-15.98 7.09-5.97 0-10.81-1.69-14.41-5.19-3.69-3.59-5.63-8.67-5.63-15.08v-34.66h5.76v33.66c0 10.47 5.16 16.2 14.97 16.2s15.29-5.85 15.29-16.2v-33.66h5.74v54.25h-5.74v-6.42zm47.56 7.09c-14.86 0-23.85-10.58-23.85-27.81s8.99-27.78 23.85-27.78c7.44 0 12.16 1.91 17.89 8.34l-3.94 3.59c-4.61-5.18-8.22-6.86-13.95-6.86-6.18 0-11.14 2.34-14.39 7.2-2.71 3.93-3.72 8.21-3.72 15.51s1.01 11.61 3.72 15.54c3.24 4.84 8.21 7.21 14.39 7.21 5.73 0 9.34-1.81 13.95-6.87l3.94 3.6c-5.73 6.42-10.46 8.33-17.89 8.33m37.68-14.86v-35.78h-7.43v-4.29h7.43v-17.31h5.73v17.31h12.27v4.29h-12.27v35.9c0 5.74 2.58 9.01 8.33 9.01h3.94v5.06h-4.95c-8.57 0-13.05-5.97-13.05-14.19m34.29 14.19h5.74v-54.23h-5.74zm-.66-73.03h7.09v-7.08h-7.09zm39.92 73.03-19.83-54.24h6.31l16.33 47.49 16.31-47.49h6.3l-19.81 54.24zm39.25 0h5.74v-54.23h-5.74zm-.69-73.03h7.08v-7.08h-7.08zm29.37 58.84v-35.78h-7.43v-4.29h7.43v-17.31h5.73v17.31h12.26v4.29h-12.26v35.9c0 5.74 2.59 9.01 8.31 9.01h3.94v5.06h-4.94c-8.55 0-13.05-5.97-13.05-14.19m45.77 35.23c-2.7 2.61-6.63 3.49-10.22 3.49h-2.7v-5.07h2.13c6.18 0 7.97-2.03 9.9-7.43l4.39-12.03-19.8-54.25h6.29l16.32 47.49 16.32-47.49h6.31l-25.21 68.99c-1.02 2.93-2.26 5.07-3.73 6.3"/><path d="m350.04 48.25 25.78-28.78c-42.33-30.05-100.78-26.01-138.53 10.03l28.78 25.5c23.39-20.48 57.73-23.09 83.97-6.75" fill="#b0cfee"/><path d="m369.52 146.7 28.78 25.55c14.84-19.4 22.16-42.48 22.16-65.5 0-26.11-9.4-52.16-27.94-72.59l-25.82 28.75c19.33 24.08 20.63 58.34 2.82 83.79" fill="#55a9de"/><path d="m83.37 123.06h-41.54v49.93h41.54c18.07 0 26.67-11.42 26.67-25.11s-8.6-24.82-26.67-24.82m-2.55-82.41h-39v46.78h39c16.9 0 26.35-9.43 26.35-23.39s-9.45-23.39-26.35-23.39m6.59 167.72h-85.43v-203.11h81.97c39.85 0 63.06 22.28 63.06 57.07 0 22.54-14.91 37.08-25.21 41.92 12.32 5.71 28.08 18.52 28.08 45.63 0 37.92-26.08 58.48-62.47 58.48m451.04 1.72c-30.95 0-54.48-6.56-74.53-26.8l25.81-25.69c12.9 12.84 30.38 17.12 49.29 17.12 23.52 0 36.14-8.86 36.14-25.11 0-7.12-2.01-13.15-6.34-17.11-3.99-3.69-8.59-5.72-18.04-7.12l-24.66-3.45c-17.48-2.55-30.4-7.96-39.56-16.83-9.76-9.66-14.63-22.82-14.63-39.91 0-36.23 26.94-61.62 71.09-61.62 28.09 0 48.44 6.86 65.93 23.7l-25.23 24.81c-12.9-12.26-28.39-13.99-41.85-13.99-21.21 0-31.54 11.67-31.54 25.65 0 5.14 1.73 10.55 6.02 14.56 4.03 3.71 10.62 6.86 18.93 7.98l24.09 3.43c18.63 2.57 30.38 7.7 38.97 15.68 10.9 10.24 15.77 25.11 15.77 43.07 0 39.34-32.98 61.61-75.69 61.61m193.64.02c-30.97 0-54.45-6.56-74.53-26.8l25.82-25.69c12.86 12.84 30.34 17.12 49.29 17.12 23.51 0 36.1-8.86 36.1-25.11 0-7.12-1.98-13.15-6.31-17.11-3.98-3.69-8.57-5.72-18.02-7.12l-24.68-3.45c-17.47-2.55-30.37-7.96-39.54-16.83-9.76-9.66-14.63-22.82-14.63-39.91 0-36.23 26.93-61.62 71.08-61.62 28.09 0 48.46 6.86 65.95 23.7l-25.26 24.81c-12.9-12.26-28.35-13.99-41.84-13.99-21.21 0-31.51 11.67-31.51 25.65 0 5.14 1.69 10.55 6 14.56 4 3.71 10.61 6.86 18.92 7.98l24.09 3.43c18.63 2.57 30.39 7.7 38.98 15.68 10.91 10.24 15.76 25.11 15.76 43.07 0 39.34-32.97 61.61-75.66 61.61m201.78-144.87-25.85 73.84h50.74l-24.88-73.84zm47.56 143.18-12.06-35.94h-72.53l-12.34 35.94h-41.53l74.22-203.11h31.29l74.5 203.11h-41.54zm169.34-166.72h-37.57v53.65h37.57c17.5 0 28.96-11.14 28.96-26.84s-11.45-26.81-28.96-26.81m30.95 167.72-39.86-81.01h-28.66v81.01h-39.83v-203.11h79.96c41.58 0 66.21 28.28 66.21 62.2 0 28.52-17.48 46.21-37.28 53.33l45.6 87.58zm202.53-155.16c-6.87-8.27-16.07-12.57-29.81-12.57h-30.09v132.34h30.09c13.74 0 22.94-4.27 29.81-12.55 7.44-9.12 8.59-23.67 8.59-54.45s-1.15-43.65-8.59-52.77m27.8 135.75c-13.47 13.42-32.69 19.41-53.89 19.41h-73.66v-203.1h73.66c21.2 0 40.42 5.99 53.89 19.4 22.93 22.8 20.65 50.77 20.65 81.31s2.27 60.15-20.65 82.97m-1147.33-30.9c25.11 22.3 61.96 23.37 88.21 4.51l29.07 25.79c-40.7 34.37-101.86 34.52-142.83-1.79-21.7-19.3-34.57-45.81-36.24-74.69-1.36-23.8 5.03-46.85 18.13-66.32l29.09 25.81c-6.55 11.57-9.69 24.75-8.89 38.32 1.08 18.72 9.4 35.9 23.46 48.37" fill="#0072bb"/></svg>