<svg xmlns="http://www.w3.org/2000/svg" width="1200" height="500" viewBox="0 0 1200 500" role="img" aria-label="Industrial Parts supplier">
  <defs>
    <linearGradient id="g" x1="0" y1="0" x2="1" y2="1">
      <stop offset="0" stop-color="#081E2D"/>
      <stop offset="1" stop-color="#0284C7"/>
    </linearGradient>
    <pattern id="grid" width="48" height="48" patternUnits="userSpaceOnUse">
      <path d="M48 0H0V48" fill="none" stroke="#ffffff" stroke-opacity="0.06" stroke-width="1"/>
    </pattern>
  </defs>
  <rect width="1200" height="500" fill="url(#g)"/>
  <rect width="1200" height="500" fill="url(#grid)"/>
  <circle cx="1040" cy="90" r="220" fill="#ffffff" fill-opacity="0.06"/>
  <circle cx="180" cy="430" r="180" fill="#ffffff" fill-opacity="0.05"/>
  <g transform="translate(600 210) scale(6.5) translate(-12 -12)" fill="none" stroke="#ffffff" stroke-opacity="0.9" stroke-width="1.6" stroke-linecap="round" stroke-linejoin="round"><circle cx="12" cy="12" r="3"/><path d="M12 2v3M12 19v3M2 12h3M19 12h3M5 5l2 2M17 17l2 2M19 5l-2 2M7 17l-2 2"/></g>
  <text x="600" y="390" text-anchor="middle" font-family="Inter, system-ui, sans-serif" font-size="30" font-weight="700" fill="#ffffff" fill-opacity="0.95">Industrial Parts</text>
</svg>